<?xml version="1.0" encoding="utf-8"?>
<!-- Generator: Adobe Illustrator 22.1.0, SVG Export Plug-In . SVG Version: 6.00 Build 0)  -->
<svg version="1.1" id="Layer_1" xmlns="http://www.w3.org/2000/svg" xmlns:xlink="http://www.w3.org/1999/xlink" x="0px" y="0px"
	 viewBox="0 0 517.9 311" style="enable-background:new 0 0 517.9 311;" xml:space="preserve">
<style type="text/css">
	.st0{fill:#25438E;}
	.st1{fill:#D0262A;}
</style>
<g id="XMLID_108_">
	<g id="XMLID_157_">
		<path id="XMLID_106_" class="st0" d="M15.5,175h5.7c0-8.4,0.2-13.4,0.4-14.9c0.4-3.5,1.9-6.3,4.4-8.4c2.5-2.1,6.1-3.1,10.7-3.1
			c3.3,0,7.1,0.8,11.3,2.3v12.5c-2.3-0.7-4.2-1-5.7-1c-1.9,0-3.3,0.4-4.1,1.2c-0.6,0.6-0.9,1.8-0.9,3.6l-0.1,7.8h10.2v13.7H37.3
			v50.6H21.2v-50.6h-5.7V175z"/>
		<path id="XMLID_105_" class="st0" d="M57.8,175h14v8.1c1.5-3.2,3.4-5.6,5.9-7.3c2.4-1.7,5.1-2.5,8-2.5c2,0,4.2,0.6,6.5,1.7
			l-5,13.9c-1.9-0.9-3.4-1.4-4.6-1.4c-2.5,0-4.5,1.5-6.2,4.6c-1.7,3.1-2.5,9.1-2.5,18l0.1,3.1v26H57.8V175z"/>
		<path id="XMLID_168_" class="st0" d="M160.3,208.7c0-10.6-3.2-19.1-9.5-25.6c-6.3-6.5-14.6-9.7-24.7-9.7c-9.6,0-17.5,3.2-23.8,9.7
			c-6.3,6.5-9.5,14.6-9.5,24.4c0,9.6,3.2,17.5,9.5,23.9c6.3,6.3,14.6,9.5,24.6,9.5c6.5,0,12.1-1.2,16.9-3.5
			c4.7-2.3,8.8-5.9,12.2-10.6l-13.6-6.4c-4.3,4.2-9.5,6.3-15.5,6.3c-5,0-9.2-1.3-12.4-4c-3.3-2.7-5.3-6.3-6-10.9h52L160.3,208.7z
			 M109,199.2c1.8-3.9,3.8-6.7,6-8.2c3.4-2.5,7.4-3.7,12-3.7c4.2,0,7.9,1.1,11,3.3c3.2,2.2,5.3,5.1,6.4,8.6H109z"/>
		<path id="XMLID_165_" class="st0" d="M237.9,208.7c0-10.6-3.2-19.1-9.5-25.6c-6.4-6.5-14.6-9.7-24.7-9.7c-9.6,0-17.5,3.2-23.8,9.7
			c-6.3,6.5-9.5,14.6-9.5,24.4c0,9.6,3.2,17.5,9.5,23.9c6.3,6.3,14.5,9.5,24.6,9.5c6.5,0,12.1-1.2,16.8-3.5
			c4.7-2.3,8.8-5.9,12.2-10.6l-13.6-6.4c-4.3,4.2-9.5,6.3-15.5,6.3c-5,0-9.2-1.3-12.4-4c-3.3-2.7-5.2-6.3-6-10.9h52L237.9,208.7z
			 M186.5,199.2c1.8-3.9,3.8-6.7,6-8.2c3.4-2.5,7.4-3.7,11.9-3.7c4.2,0,7.9,1.1,11,3.3c3.2,2.2,5.3,5.1,6.4,8.6H186.5z"/>
		<path id="XMLID_162_" class="st0" d="M298.4,182.1c-2.9-2.9-6-5.1-9.4-6.5c-3.4-1.5-7-2.2-10.9-2.2c-8.4,0-15.6,3.2-21.5,9.5
			c-5.9,6.3-8.8,14.5-8.8,24.4c0,9.6,3,17.6,9.1,24c6.1,6.4,13.3,9.6,21.6,9.6c3.7,0,7.2-0.7,10.3-2c3.2-1.3,6.3-3.5,9.5-6.5v6.8
			h16.1v-89.1h-16.1V182.1z M294,193.4c3.4,3.5,5,8,5,13.6c0,5.7-1.7,10.3-5,13.8c-3.3,3.5-7.6,5.3-12.6,5.3
			c-4.9,0-9.1-1.8-12.4-5.4c-3.4-3.6-5-8.1-5-13.7c0-5.5,1.7-10,5-13.5c3.3-3.5,7.5-5.3,12.5-5.3C286.4,188.2,290.6,189.9,294,193.4
			"/>
		<path id="XMLID_159_" class="st0" d="M336.4,182.1c-7.3,6.7-11,15-11,25.1c0,9.4,3.3,17.3,9.8,23.9c6.5,6.5,14.4,9.8,23.6,9.8
			c6.2,0,12-1.5,17.2-4.5c5.2-3,9.3-7.1,12.3-12.3c3-5.3,4.5-10.9,4.5-17c0-6-1.5-11.6-4.5-16.8c-3-5.2-7.1-9.3-12.5-12.3
			c-5.3-3-11-4.5-17.1-4.5C350.3,173.4,342.9,176.3,336.4,182.1 M371.6,193.7c3.3,3.5,4.9,7.9,4.9,13.4c0,5.5-1.7,10-5,13.5
			c-3.3,3.5-7.5,5.3-12.6,5.3c-5,0-9.2-1.7-12.5-5.2c-3.3-3.5-4.9-8-4.9-13.6c0-5.4,1.7-9.9,5-13.4c3.3-3.5,7.5-5.2,12.5-5.2
			C364.1,188.5,368.3,190.2,371.6,193.7"/>
		<path id="XMLID_96_" class="st0" d="M403.7,175h16.1v7.5c2.8-3,5.8-5.3,9.2-6.8c3.4-1.5,7.1-2.3,11.1-2.3c4,0,7.7,1,10.9,3
			c3.2,2,5.9,4.9,7.8,8.7c2.6-3.8,5.7-6.7,9.5-8.7c3.7-2,7.8-3,12.3-3c4.6,0,8.6,1.1,12.1,3.2c3.5,2.1,6,4.9,7.5,8.3
			c1.5,3.4,2.3,9,2.3,16.7v37.7h-16.1v-32.5c0-7.3-0.9-12.2-2.8-14.7c-1.8-2.6-4.6-3.9-8.3-3.9c-2.8,0-5.3,0.8-7.5,2.4
			c-2.2,1.6-3.9,3.7-4.9,6.5c-1.1,2.8-1.6,7.2-1.6,13.3v28.9h-16.1v-31c0-5.7-0.4-9.9-1.3-12.4c-0.9-2.6-2.2-4.5-3.9-5.7
			c-1.7-1.3-3.8-1.9-6.2-1.9c-2.7,0-5.2,0.8-7.4,2.4c-2.2,1.6-3.9,3.8-5,6.7c-1.1,2.9-1.7,7.4-1.7,13.5v28.5h-16.1V175z"/>
	</g>
	<polygon id="XMLID_95_" class="st1" points="108.2,152.7 108.3,152.7 108.3,152.7 108,152.7 	"/>
	<g id="XMLID_146_">
		<path id="XMLID_94_" class="st1" d="M45.3,126.2l62.4,26.3c1.6-4.3,3.5-8.5,5.5-12.4L45.3,126.2z"/>
		<path id="XMLID_93_" class="st1" d="M169.1,93.9c0.2,0,0.4-0.1,0.6-0.1L142.6,27l14,71.1c3.9-1.7,7.8-3,11.9-4L169.1,93.9z"/>
		<path id="XMLID_92_" class="st1" d="M153.5,99.5c0.7-0.3,1.4-0.7,2.1-1l-39.5-60.3l27.4,67.2c3-2.1,6.1-3.9,9.4-5.5L153.5,99.5z"
			/>
		<path id="XMLID_91_" class="st1" d="M139.1,108.5c1.2-0.9,2.4-1.8,3.7-2.7L92.4,54.3l39.6,60.3c2.1-2,4.2-3.9,6.5-5.7L139.1,108.5
			z"/>
		<path id="XMLID_90_" class="st1" d="M126.4,120.7c1.6-1.9,3.3-3.6,5-5.3L72.1,75l50,50.9c1.2-1.6,2.4-3.1,3.6-4.5L126.4,120.7z"/>
		<path id="XMLID_89_" class="st1" d="M248,125.8l50-50.8l-59.1,40.3c-0.2-0.2-0.5-0.5-0.7-0.7l39.6-60.2l-50.3,51.4
			c-0.3-0.2-0.5-0.4-0.8-0.5l27.3-67.1l-39.5,60.3c-0.3-0.1-0.6-0.3-0.9-0.4l13.9-71l-27.1,66.8c-0.4-0.1-0.7-0.2-1.1-0.2l0.1-72.2
			L185.6,92c0,0-0.1,0-0.1,0h-0.1c5.3,0.1,10.5,0.7,15.6,1.9l0.6,0.1c5.2,1.3,10.2,3.1,15,5.4l0.6,0.3c4.9,2.4,9.5,5.4,13.8,8.8
			l0.6,0.4c4.4,3.5,8.4,7.4,12.2,11.7l0.5,0.6c3.7,4.4,7.1,9.1,10.1,14.2l0.5,0.8c0.4,0.7,0.8,1.4,1.2,2.1l0.1-0.1l57.7-39.2"/>
		<path id="XMLID_88_" class="st1" d="M121.5,126.9L56.2,99.2l57.8,39.3c0.4-0.7,0.8-1.4,1.2-2.1l0.5-0.9"/>
		<path id="XMLID_87_" class="st1" d="M170.7,21.3l0.1,72.3c4.5-0.9,9-1.4,13.7-1.5L170.7,21.3z"/>
		<path id="XMLID_86_" class="st1" d="M324.8,126.2L257,140l-0.1,0c2.1,4,4,8.2,5.6,12.6l-0.7,0l0,0l0.1,0l0.7,0
			c0-0.1-0.1-0.2-0.1-0.2L324.8,126.2z"/>
	</g>
	<g id="XMLID_109_">
		<path id="XMLID_144_" class="st0" d="M15.2,290.1v-30.4h20.5v3.6H19.3v9.4h14.3v3.6H19.3v13.8H15.2z"/>
		<path id="XMLID_142_" class="st0" d="M44.2,290.1v-30.4h4v30.4H44.2z"/>
		<path id="XMLID_140_" class="st0" d="M57.8,290.1v-30.4h4.1l16,23.8v-23.8h3.9v30.4h-4.1l-16-23.9v23.9H57.8z"/>
		<path id="XMLID_137_" class="st0" d="M87.7,290.1l11.7-30.4h4.3l12.4,30.4h-4.6l-3.5-9.2H95.3l-3.3,9.2H87.7z M96.4,277.7h10.3
			l-3.2-8.4c-1-2.6-1.7-4.7-2.2-6.3c-0.4,1.9-0.9,3.9-1.6,5.8L96.4,277.7z"/>
		<path id="XMLID_135_" class="st0" d="M121.8,290.1v-30.4h4.1l16,23.8v-23.8h3.9v30.4h-4.1l-16-23.9v23.9H121.8z"/>
		<path id="XMLID_133_" class="st0" d="M176.7,279.5l4,1c-0.8,3.3-2.4,5.8-4.5,7.5c-2.2,1.7-4.9,2.6-8,2.6c-3.3,0-5.9-0.7-8-2
			c-2.1-1.3-3.6-3.3-4.7-5.8c-1.1-2.5-1.6-5.2-1.6-8.1c0-3.2,0.6-5.9,1.8-8.3c1.2-2.4,2.9-4.1,5.2-5.4c2.2-1.2,4.7-1.8,7.4-1.8
			c3,0,5.6,0.8,7.7,2.3c2.1,1.5,3.5,3.7,4.3,6.5l-4,0.9c-0.7-2.2-1.7-3.8-3.1-4.8c-1.3-1-3-1.5-5.1-1.5c-2.3,0-4.3,0.6-5.9,1.7
			c-1.6,1.1-2.7,2.6-3.3,4.5c-0.6,1.9-1,3.8-1,5.8c0,2.6,0.4,4.8,1.1,6.8c0.8,1.9,1.9,3.4,3.5,4.3c1.6,1,3.3,1.4,5.2,1.4
			c2.3,0,4.2-0.6,5.7-1.9C175.1,284,176.2,282,176.7,279.5z"/>
		<path id="XMLID_131_" class="st0" d="M188.9,290.1v-30.4h4v30.4H188.9z"/>
		<path id="XMLID_128_" class="st0" d="M199.2,290.1l11.7-30.4h4.3l12.4,30.4h-4.6l-3.5-9.2h-12.7l-3.3,9.2H199.2z M208,277.7h10.3
			l-3.2-8.4c-1-2.6-1.7-4.7-2.2-6.3c-0.4,1.9-0.9,3.9-1.6,5.8L208,277.7z"/>
		<path id="XMLID_126_" class="st0" d="M233.2,290.1v-30.4h4v26.8h15v3.6H233.2z"/>
		<path id="XMLID_124_" class="st0" d="M273.8,290.1v-30.4h4.1l16,23.8v-23.8h3.9v30.4h-4.1l-16-23.9v23.9H273.8z"/>
		<path id="XMLID_122_" class="st0" d="M307.1,290.1v-30.4h22v3.6h-17.9v9.3H328v3.6h-16.8v10.3h18.6v3.6H307.1z"/>
		<path id="XMLID_120_" class="st0" d="M345.6,290.1v-26.8h-10v-3.6h24.1v3.6h-10v26.8H345.6z"/>
		<path id="XMLID_118_" class="st0" d="M371.7,290.1l-8.1-30.4h4.1l4.6,19.9c0.5,2.1,0.9,4.2,1.3,6.2c0.8-3.2,1.2-5.1,1.4-5.6
			l5.8-20.5h4.8l4.4,15.4c1.1,3.8,1.9,7.4,2.4,10.8c0.4-1.9,0.9-4.1,1.5-6.6l4.8-19.5h4l-8.3,30.4h-3.9l-6.4-23.1
			c-0.5-1.9-0.9-3.1-1-3.6c-0.3,1.4-0.6,2.6-0.9,3.6l-6.4,23.1H371.7z"/>
		<path id="XMLID_115_" class="st0" d="M407.7,275.3c0-5,1.4-9,4.1-11.8c2.7-2.9,6.2-4.3,10.5-4.3c2.8,0,5.3,0.7,7.6,2
			c2.3,1.3,4,3.2,5.1,5.6c1.2,2.4,1.8,5.1,1.8,8.2c0,3.1-0.6,5.8-1.9,8.3c-1.2,2.4-3,4.3-5.3,5.5c-2.3,1.3-4.7,1.9-7.4,1.9
			c-2.9,0-5.4-0.7-7.7-2.1c-2.3-1.4-4-3.3-5.1-5.7C408.3,280.5,407.7,278,407.7,275.3z M411.9,275.4c0,3.7,1,6.5,3,8.6
			c2,2.1,4.4,3.2,7.4,3.2c3,0,5.5-1.1,7.5-3.2c2-2.1,2.9-5.1,2.9-9.1c0-2.5-0.4-4.6-1.3-6.5c-0.8-1.8-2.1-3.3-3.7-4.3
			c-1.6-1-3.4-1.5-5.4-1.5c-2.8,0-5.3,1-7.3,2.9C412.9,267.6,411.9,270.8,411.9,275.4z"/>
		<path id="XMLID_112_" class="st0" d="M444.6,290.1v-30.4H458c2.7,0,4.8,0.3,6.2,0.8c1.4,0.5,2.5,1.5,3.4,2.9
			c0.8,1.4,1.3,2.9,1.3,4.6c0,2.2-0.7,4-2.1,5.4c-1.4,1.5-3.5,2.4-6.5,2.8c1.1,0.5,1.9,1,2.4,1.5c1.2,1.1,2.3,2.4,3.3,4l5.3,8.3
			h-5.1l-4-6.3c-1.2-1.8-2.1-3.2-2.9-4.2c-0.8-1-1.4-1.6-2-2c-0.6-0.4-1.2-0.7-1.8-0.8c-0.5-0.1-1.2-0.1-2.2-0.1h-4.7v13.5H444.6z
			 M448.6,273.2h8.6c1.8,0,3.3-0.2,4.3-0.6c1-0.4,1.8-1,2.4-1.8c0.5-0.8,0.8-1.7,0.8-2.7c0-1.4-0.5-2.6-1.6-3.5
			c-1-0.9-2.7-1.4-4.9-1.4h-9.6V273.2z"/>
		<path id="XMLID_110_" class="st0" d="M477.5,290.1v-30.4h4v15.1l15.1-15.1h5.5l-12.7,12.3l13.3,18.1h-5.3l-10.8-15.4l-5,4.8v10.5
			H477.5z"/>
	</g>
</g>
</svg>
